<svg width="24" height="24" viewBox="0 0 24 24" fill="none" xmlns="http://www.w3.org/2000/svg">
<path d="M5 17H18C20.2091 17 22 15.2091 22 13C22 11.1238 20.7083 9.54938 18.9657 9.11736C18.9884 8.9147 19 8.70871 19 8.5C19 5.46243 16.5376 3 13.5 3C10.9806 3 8.85678 4.69403 8.20557 7.00519C8.13748 7.00174 8.06894 7 8 7C5.79086 7 4 8.79086 4 11C4 11.0568 4.00118 11.1133 4.00352 11.1695C2.83649 11.5803 2 12.6925 2 14C2 15.6569 3.34315 17 5 17Z" fill="white"/>
<path d="M7.41493 18C7.16084 18 6.92856 18.1436 6.81493 18.3708L5.48575 21.0292C5.26274 21.4752 5.58707 22 6.08575 22C6.33984 22 6.57212 21.8564 6.68575 21.6292L8.01493 18.9708C8.23794 18.5248 7.91361 18 7.41493 18Z" fill="white"/>
<path d="M10.4149 18C10.9136 18 11.2379 18.5248 11.0149 18.9708L9.68575 21.6292C9.57212 21.8564 9.33984 22 9.08575 22C8.58707 22 8.26274 21.4752 8.48575 21.0292L9.81493 18.3708C9.92856 18.1436 10.1608 18 10.4149 18Z" fill="white"/>
<path d="M16.4149 18C16.9136 18 17.2379 18.5248 17.0149 18.9708L15.6857 21.6292C15.5721 21.8564 15.3398 22 15.0857 22C14.587 22 14.2627 21.4752 14.4857 21.0292L15.8149 18.3708C15.9285 18.1436 16.1608 18 16.4149 18Z" fill="white"/>
<path d="M13.4149 18C13.9136 18 14.2379 18.5248 14.0149 18.9708L12.6857 21.6292C12.5721 21.8564 12.3398 22 12.0857 22C11.587 22 11.2627 21.4752 11.4857 21.0292L12.8149 18.3708C12.9285 18.1436 13.1608 18 13.4149 18Z" fill="white"/>
</svg>
