<svg width="24" height="24" viewBox="0 0 24 24" fill="none" xmlns="http://www.w3.org/2000/svg">
<path d="M16.75 17.5C16.75 18.2956 16.4339 19.0587 15.8713 19.6213C15.3087 20.1839 14.5456 20.5 13.75 20.5C12.4656 20.5 11.2234 19.6628 10.7969 18.5106C10.732 18.3251 10.7425 18.1216 10.8261 17.9437C10.9097 17.7659 11.0598 17.628 11.2441 17.5597C11.4284 17.4914 11.6321 17.4981 11.8115 17.5785C11.9908 17.6588 12.1314 17.8064 12.2031 17.9894C12.4131 18.5566 13.0938 19 13.75 19C14.1478 19 14.5294 18.842 14.8107 18.5607C15.092 18.2794 15.25 17.8978 15.25 17.5C15.25 17.1022 15.092 16.7206 14.8107 16.4393C14.5294 16.158 14.1478 16 13.75 16H3.25C3.05109 16 2.86032 15.921 2.71967 15.7803C2.57902 15.6397 2.5 15.4489 2.5 15.25C2.5 15.0511 2.57902 14.8603 2.71967 14.7197C2.86032 14.579 3.05109 14.5 3.25 14.5H13.75C14.5456 14.5 15.3087 14.8161 15.8713 15.3787C16.4339 15.9413 16.75 16.7044 16.75 17.5ZM10.75 10C11.5456 10 12.3087 9.68393 12.8713 9.12132C13.4339 8.55871 13.75 7.79565 13.75 7C13.75 6.20435 13.4339 5.44129 12.8713 4.87868C12.3087 4.31607 11.5456 4 10.75 4C9.46563 4 8.22344 4.83719 7.79688 5.98938C7.73197 6.17487 7.74246 6.37844 7.8261 6.55628C7.90974 6.73412 8.05985 6.87202 8.24412 6.94032C8.42839 7.00863 8.63212 7.00187 8.81146 6.92152C8.99081 6.84116 9.13145 6.69361 9.20312 6.51062C9.41313 5.94344 10.0938 5.5 10.75 5.5C11.1478 5.5 11.5294 5.65804 11.8107 5.93934C12.092 6.22064 12.25 6.60218 12.25 7C12.25 7.39782 12.092 7.77936 11.8107 8.06066C11.5294 8.34196 11.1478 8.5 10.75 8.5H1.75C1.55109 8.5 1.36032 8.57902 1.21967 8.71967C1.07902 8.86032 1 9.05109 1 9.25C1 9.44891 1.07902 9.63968 1.21967 9.78033C1.36032 9.92098 1.55109 10 1.75 10H10.75ZM19 7C17.7156 7 16.4734 7.83719 16.0469 8.98938C15.982 9.17487 15.9925 9.37844 16.0761 9.55628C16.1597 9.73412 16.3098 9.87202 16.4941 9.94032C16.6784 10.0086 16.8821 10.0019 17.0615 9.92152C17.2408 9.84116 17.3814 9.69361 17.4531 9.51062C17.6631 8.94344 18.3438 8.5 19 8.5C19.3978 8.5 19.7794 8.65804 20.0607 8.93934C20.342 9.22064 20.5 9.60218 20.5 10C20.5 10.3978 20.342 10.7794 20.0607 11.0607C19.7794 11.342 19.3978 11.5 19 11.5H2.5C2.30109 11.5 2.11032 11.579 1.96967 11.7197C1.82902 11.8603 1.75 12.0511 1.75 12.25C1.75 12.4489 1.82902 12.6397 1.96967 12.7803C2.11032 12.921 2.30109 13 2.5 13H19C19.7956 13 20.5587 12.6839 21.1213 12.1213C21.6839 11.5587 22 10.7956 22 10C22 9.20435 21.6839 8.44129 21.1213 7.87868C20.5587 7.31607 19.7956 7 19 7Z" fill="white"/>
</svg>
